<?xml version="1.0" encoding="UTF-8" standalone="no"?>
<svg
   id="eVckW03qGEn1"
   viewBox="0 0 1358 580"
   shape-rendering="geometricPrecision"
   text-rendering="geometricPrecision"
   version="1.1"
   xmlns="http://www.w3.org/2000/svg"
   xmlns:svg="http://www.w3.org/2000/svg">
  <defs
     id="defs1">
    <linearGradient
       id="swatch4">
      <stop
         style="stop-color:#000000;stop-opacity:1;"
         offset="0"
         id="stop4" />
    </linearGradient>
  </defs>
  <g
     id="g4"
     transform="matrix(1.1720853,0,0,1.1099274,-27.082491,-33.699319)">
    <path
       style="fill:#111827;fill-opacity:1;stroke-width:0.987636"
       d="M 22.206806,290.68435 V 25.010158 H 602.93699 1183.6672 V 290.68435 556.35853 H 602.93699 22.206806 Z"
       id="path3" />
    <path
       style="fill:#999999;stroke:none;stroke-width:0.775093"
       d="m 422.08054,122.04217 c -3.00971,12.12787 -14.77181,17.88805 -26.81256,18.98827 -20.98468,1.91748 -42.43289,-1.30748 -63.08837,-5.12577 -73.21103,-13.53353 -159.78885,-7.45247 -207.27765,55.46239 -32.541368,43.11197 -34.185728,108.21261 5.52875,147.72335 10.29947,10.24664 24.13184,18.32224 37.71916,23.78959 19.19035,7.72195 38.80266,8.30196 59.14533,6.75109 v -0.76182 c -8.42035,-2.40972 -17.47655,-2.78345 -26.02395,-5.35208 C 185.48908,358.77438 171.33,348.69782 160.40073,336.87317 111.25326,283.69925 124.17614,188.30884 191.01939,154.997 c 39.65214,-19.76094 82.19091,-10.84598 123.02232,-0.39913 20.21321,5.17161 40.36884,12.39121 61.51116,12.39121 22.40619,0 42.23934,-6.55029 46.58791,-30.47248 0.79614,-4.37977 1.75616,-10.29276 -0.0602,-14.47443 m -190.05371,39.61422 c 26.20924,10.61097 18.1379,44.71233 18.1379,67.03946 v 128.74624 38.0906 c 0,6.37743 1.03617,13.70738 -1.22124,19.80711 -2.9257,7.90553 -11.12754,9.76726 -15.33945,15.99806 39.45684,-0.31559 78.60429,-5.45784 118.29068,-3.77907 47.57895,2.0126 94.59507,10.93389 142.0827,13.61032 20.21122,1.13912 40.88017,3.05576 60.5887,-2.53643 6.03101,-1.71126 16.98402,-4.21033 18.1379,-11.10388 -8.00825,0.15967 -15.70206,2.93598 -23.65814,3.67975 -13.15912,1.23016 -26.38673,0.34173 -39.43023,-1.60358 -28.94445,-4.31678 -57.44256,-11.65439 -85.95791,-17.98839 -16.38834,-3.6403 -33.56141,-8.0544 -50.47069,-8.45461 -18.87919,-0.44679 -37.32635,1.32033 -55.99093,3.7979 -4.26432,0.56606 -16.68425,4.23019 -20.02788,1.06102 -2.04697,-1.94019 -1.26444,-6.18196 -1.26444,-8.67914 v -24.37798 -97.51195 c 17.85343,0 34.56591,1.67332 44.25982,18.28349 3.35652,5.75133 4.8192,12.112 6.99949,18.28349 4.36561,-5.2774 3.94303,-14.11581 3.94303,-20.56892 0,-14.44718 0.60435,-29.00377 0.32311,-43.42329 -0.11204,-5.74344 1.43055,-13.89289 -1.11172,-19.0453 h -1.57721 c -1.86832,4.83353 -3.31757,9.62229 -6.837,13.64384 -11.13772,12.7267 -30.4194,12.25777 -45.99952,12.25777 v -67.80128 c 24.79576,1.89307 68.99473,19.17878 82.80349,-10.66537 -15.98537,2.86678 -32.25289,-0.16321 -48.10487,-2.73218 -19.80422,-3.20943 -39.51767,-6.72779 -59.14536,-10.82055 -9.44561,-1.9696 -18.77119,-3.94141 -28.38976,-4.85951 -4.08648,-0.39004 -7.94515,-1.43916 -11.04046,1.65238 m 716.053,9.52619 c -14.85837,1.50163 -28.71133,2.95308 -42.58466,8.99478 -56.81863,24.74392 -82.04676,86.73334 -78.0013,143.745 4.68643,66.04497 60.9461,129.19205 133.20362,122.52245 94.72796,-8.74375 133.20426,-120.17618 101.73016,-196.41822 -17.728,-42.94346 -63.06226,-84.02707 -114.34782,-78.84401 m -5.52031,14.31043 c 35.66747,-4.4753 63.64803,20.04351 76.94623,50.05915 19.6375,44.32418 19.7681,105.94853 -2.6226,149.31516 -11.3682,22.01807 -29.31696,42.82706 -56.18566,46.2501 -38.53239,4.909 -66.51292,-20.1521 -80.27948,-53.1064 -18.1183,-43.3715 -18.8078,-102.27913 2.80396,-144.74429 11.90885,-23.40001 31.18682,-44.24157 59.33755,-47.77372 m -323.32783,4.35043 v 0.76181 c 6.91443,3.5204 14.53917,5.22523 18.92227,12.18899 3.46965,5.51251 2.37006,12.88678 2.37006,19.0453 v 40.37604 110.46275 c 0,15.73063 3.77248,36.68225 -0.74053,51.80322 -2.69668,9.03527 -14.79154,10.15169 -17.39738,17.52168 l 75.70604,0.76181 c -4.48784,-6.97341 -15.03162,-8.03376 -18.4823,-16.75987 -3.9216,-9.91695 -1.23282,-24.52719 -1.23282,-35.04335 V 314.0188 h 85.1693 v 76.18121 c 0,10.86678 2.66102,25.60335 -1.68185,35.80516 -3.64281,8.55742 -13.90638,9.73492 -18.03327,16.75987 h 78.07186 c -4.26705,-7.93479 -15.69103,-8.42341 -18.88329,-18.28349 -2.5725,-7.94578 -1.62043,-16.93451 -1.62043,-25.1398 v -44.1851 -97.51194 c 0,-15.53319 -2.59574,-33.55909 0.88597,-48.75597 1.21502,-5.3033 4.75377,-9.68956 9.36652,-12.67452 3.62429,-2.34532 8.44587,-2.6179 9.46263,-7.1326 h -77.28326 c 2.39595,6.65605 14.75684,7.42493 18.02413,15.23624 2.98932,7.14679 1.69099,16.08201 1.69099,23.61618 v 46.47054 c 0,4.48689 2.43325,19.22299 -1.26444,22.26538 -3.53943,2.91215 -17.04222,0.58898 -21.60509,0.58898 h -62.29977 v -63.99221 c 0,-8.63828 -2.30414,-20.98301 1.61678,-28.94887 3.78221,-7.68407 12.20951,-9.14842 18.09834,-14.47442 l -25.23535,-0.76182 h -34.6986 l -18.92651,0.76182 m -249.98766,6.09449 c 19.25713,1.91776 13.40627,34.4184 13.40627,47.23235 v 101.321 c 0,10.10511 4.05014,31.40066 -2.69622,39.58132 -3.74714,4.54377 -9.6075,5.20157 -14.65307,7.65103 3.7514,5.02496 17.67024,1.84922 23.65813,2.60874 11.38471,1.44404 23.22964,0.17824 34.6986,0.44967 14.92208,0.35316 30.01261,1.50293 44.95046,1.51246 l -0.78859,-30.47248 -1.57721,-14.47443 c -3.74927,6.04614 -2.61134,13.49478 -7.17106,19.79595 -10.62472,14.68249 -31.7282,9.79076 -47.24266,11.43834 V 242.40847 c 0,-16.54265 -5.73375,-40.29411 13.40628,-47.99416 v -1.52362 c -12.47282,-3.56152 -29.56503,-0.76182 -42.58466,-0.76182 -4.58826,0 -12.43356,-1.82153 -13.40627,3.80906 m 104.09581,-3.04724 c 3.12806,5.32485 10.70358,5.81116 13.28946,12.18899 4.40167,10.85635 0.90542,28.75319 0.90542,40.37604 v 91.41745 c 0,19.16694 3.61024,42.19402 -3.15442,60.18315 19.0039,-4.37078 40.52303,0.98318 59.93396,-0.89173 16.5655,-1.60007 31.86667,-8.78641 44.09432,-19.49029 49.54458,-43.37036 41.16627,-138.87462 -16.49317,-172.01138 -29.16802,-16.76279 -66.09001,-11.77223 -98.57557,-11.77223 m 42.58464,12.9508 c 10.61704,0.007 21.84393,1.13712 31.54419,5.57663 42.19863,19.31301 48.62307,74.81791 40.21638,114.02786 -2.42045,11.28939 -6.32901,22.31086 -12.88659,31.99611 -9.70425,14.33265 -25.06049,24.68594 -43.10188,25.8828 -3.46348,0.22977 -12.41085,2.6703 -14.96159,-0.44086 -1.52946,-1.86552 -0.81051,-5.70314 -0.81051,-7.92026 v -19.0453 -74.65758 z"
       id="path1" />
  </g>
</svg>
